# xmcd
#
# Track frame offsets:
#	150
#	22555
#	41457
#	59545
#	77302
#	93632
#	113700
#	131072
#	150857
#	172822
#
# Disc length: 2556 seconds
#
# Revision: 4
# Processed by: cddbd v1.5.2PL0 Copyright (c) Steve Scherf et al.
# Submitted via: EZCDAudioConverter 8.0.2.1
#
DISCID=6409fa0a
DTITLE=Various Artist - Tình Yêu Như Ván Bài
DYEAR=1998
DGENRE=
TTITLE0=Lưu Bích - Lần cách xa trong đời
TTITLE1=Don Hồ - I Who Have Nothing
TTITLE2=Trúc Linh, Trúc Lam - Chuyện tình không suy tư
TTITLE3=Bảo Hân - Mùa thu nhớ ai
TTITLE4=Tommy Ngô - Modern Love
TTITLE5=Thiên Kim - Kỷ niệm buồn
TTITLE6=Lynda Trang Đài - Hào hoa
TTITLE7=Phương Vy - My Heart Will Go on
TTITLE8=Nguyễn Hưng, Kỳ Duyên - Tình cho không biếu không
TTITLE9=Tommy Ngô - Japanese Girl
EXTD=
EXTT0=
EXTT1=
EXTT2=
EXTT3=
EXTT4=
EXTT5=
EXTT6=
EXTT7=
EXTT8=
EXTT9=
PLAYORDER=
